<svg width="24" height="24" viewBox="0 0 24 24" fill="none" xmlns="http://www.w3.org/2000/svg">
<path fill-rule="evenodd" clip-rule="evenodd" d="M8 3C8 2.44772 7.55228 2 7 2C6.44772 2 6 2.44772 6 3V4H3C2.44772 4 2 4.44772 2 5C2 5.55228 2.44772 6 3 6H6V7C6 7.55228 6.44772 8 7 8C7.55229 8 8 7.55228 8 7V6V4V3ZM21 6H10V4H21C21.5523 4 22 4.44772 22 5C22 5.55228 21.5523 6 21 6ZM17 9C16.4477 9 16 9.44772 16 10V11V13V14C16 14.5523 16.4477 15 17 15C17.5523 15 18 14.5523 18 14V13H21C21.5523 13 22 12.5523 22 12C22 11.4477 21.5523 11 21 11H18V10C18 9.44772 17.5523 9 17 9ZM8 17C8 16.4477 7.55228 16 7 16C6.44772 16 6 16.4477 6 17V18H3C2.44772 18 2 18.4477 2 19C2 19.5523 2.44772 20 3 20H6V21C6 21.5523 6.44772 22 7 22C7.55229 22 8 21.5523 8 21V20V18V17ZM14 13H3C2.44772 13 2 12.5523 2 12C2 11.4477 2.44772 11 3 11H14V13ZM21 20H10V18H21C21.5523 18 22 18.4477 22 19C22 19.5523 21.5523 20 21 20Z" fill="black"/>
</svg>
